<svg xmlns="http://www.w3.org/2000/svg" xmlns:xlink="http://www.w3.org/1999/xlink" width="48" height="144" viewBox="0 0 48 144">
  <defs>
    <clipPath id="clip-path">
      <rect id="Rectangle_4" data-name="Rectangle 4" width="48" height="48" fill="none"/>
    </clipPath>
    <clipPath id="clip-arrowLeft">
      <rect width="48" height="144"/>
    </clipPath>
  </defs>
  <g id="arrowLeft" clip-path="url(#clip-arrowLeft)">
    <g id="arrowLeft-2" data-name="arrowLeft">
      <g id="Group_4" data-name="Group 4" clip-path="url(#clip-path)">
        <path id="Path_4" data-name="Path 4" d="M31.028,19.573,19.975,8.52l-4.426,4.428L26.6,24,15.549,35.052l4.426,4.427L31.028,28.427,35.455,24Z" transform="translate(48 48) rotate(180)" fill="#fff"/>
      </g>
      <g id="Group_5" data-name="Group 5" transform="translate(0 48)" clip-path="url(#clip-path)">
        <path id="Path_5" data-name="Path 5" d="M31.028,19.573,19.975,8.52l-4.426,4.428L26.6,24,15.549,35.052l4.426,4.427L31.028,28.427,35.455,24Z" transform="translate(48 48) rotate(180)" fill="#fff"/>
      </g>
      <g id="Group_6" data-name="Group 6" transform="translate(0 96)" clip-path="url(#clip-path)">
        <path id="Path_6" data-name="Path 6" d="M31.028,19.573,19.975,8.52l-4.426,4.428L26.6,24,15.549,35.052l4.426,4.427L31.028,28.427,35.455,24Z" transform="translate(48 48) rotate(180)" fill="#fff"/>
      </g>
    </g>
  </g>
</svg>
