<svg width="57" height="53" viewBox="0 0 57 53" fill="none" xmlns="http://www.w3.org/2000/svg">
<path d="M56.0806 47.1226H51.4839V19.5089C51.4839 19.28 51.387 19.0605 51.2146 18.8987C51.0422 18.7368 50.8083 18.6459 50.5645 18.6459H36.7742V1.38734C36.7742 1.15848 36.6773 0.938991 36.5049 0.77716C36.3325 0.61533 36.0987 0.524414 35.8548 0.524414H21.1452C20.9013 0.524414 20.6675 0.61533 20.4951 0.77716C20.3227 0.938991 20.2258 1.15848 20.2258 1.38734V11.7425H6.43548C6.19166 11.7425 5.95781 11.8334 5.7854 11.9952C5.61299 12.1571 5.51613 12.3766 5.51613 12.6054V47.1226H0.919355C0.675527 47.1226 0.441685 47.2135 0.269273 47.3753C0.0968603 47.5372 0 47.7567 0 47.9855V51.4372C0 51.6661 0.0968603 51.8856 0.269273 52.0474C0.441685 52.2093 0.675527 52.3002 0.919355 52.3002H56.0806C56.3245 52.3002 56.5583 52.2093 56.7307 52.0474C56.9031 51.8856 57 51.6661 57 51.4372V47.9855C57 47.7567 56.9031 47.5372 56.7307 47.3753C56.5583 47.2135 56.3245 47.1226 56.0806 47.1226ZM36.7742 20.3718H49.6452V47.1226H36.7742V20.3718ZM22.0645 2.25027H34.9355V47.1226H22.0645V2.25027ZM7.35484 13.4684H20.2258V47.1226H7.35484V13.4684ZM55.1613 50.5743H1.83871V48.8485H55.1613V50.5743Z" fill="black"/>
<path d="M27.5807 5.70173V11.7424C27.5807 11.9713 27.6775 12.1908 27.8499 12.3526C28.0224 12.5144 28.2562 12.6053 28.5 12.6053C28.7438 12.6053 28.9777 12.5144 29.1501 12.3526C29.3225 12.1908 29.4194 11.9713 29.4194 11.7424V4.83878C29.4194 4.60991 29.3225 4.39042 29.1501 4.22858C28.9777 4.06675 28.7438 3.97583 28.5 3.97583H27.5807C27.3368 3.97583 27.103 4.06675 26.9306 4.22858C26.7582 4.39042 26.6613 4.60991 26.6613 4.83878C26.6613 5.06765 26.7582 5.28715 26.9306 5.44898C27.103 5.61082 27.3368 5.70173 27.5807 5.70173Z" fill="black"/>
<path d="M41.371 29.0011C41.1271 29.0011 40.8933 29.092 40.7209 29.2538C40.5485 29.4156 40.4516 29.6351 40.4516 29.864C40.4516 30.0929 40.5485 30.3124 40.7209 30.4742C40.8933 30.636 41.1271 30.7269 41.371 30.7269H45.0484C45.2922 30.7269 45.5261 30.636 45.6985 30.4742C45.8709 30.3124 45.9678 30.0929 45.9678 29.864V22.9606C45.9678 22.7317 45.8709 22.5122 45.6985 22.3504C45.5261 22.1886 45.2922 22.0977 45.0484 22.0977H41.371C41.1271 22.0977 40.8933 22.1886 40.7209 22.3504C40.5485 22.5122 40.4516 22.7317 40.4516 22.9606C40.4516 23.1894 40.5485 23.4089 40.7209 23.5708C40.8933 23.7326 41.1271 23.8235 41.371 23.8235H44.129V25.5494H42.2903C42.0465 25.5494 41.8126 25.6403 41.6402 25.8021C41.4678 25.9639 41.371 26.1834 41.371 26.4123C41.371 26.6412 41.4678 26.8606 41.6402 27.0225C41.8126 27.1843 42.0465 27.2752 42.2903 27.2752H44.129V29.0011H41.371Z" fill="black"/>
<path d="M15.629 15.1943H11.9516C11.7078 15.1943 11.4739 15.2853 11.3015 15.4471C11.1291 15.6089 11.0322 15.8284 11.0322 16.0573C11.0322 16.2861 11.1291 16.5056 11.3015 16.6674C11.4739 16.8293 11.7078 16.9202 11.9516 16.9202H14.7097V17.4258L11.3015 20.6246C11.2161 20.7048 11.1484 20.7999 11.1022 20.9046C11.056 21.0093 11.0322 21.1215 11.0322 21.2348V22.9607C11.0322 23.1895 11.1291 23.409 11.3015 23.5709C11.4739 23.7327 11.7078 23.8236 11.9516 23.8236H15.629C15.8729 23.8236 16.1067 23.7327 16.2791 23.5709C16.4515 23.409 16.5484 23.1895 16.5484 22.9607C16.5484 22.7318 16.4515 22.5123 16.2791 22.3505C16.1067 22.1887 15.8729 22.0978 15.629 22.0978H12.871V21.5922L16.2791 18.3933C16.3645 18.3132 16.4322 18.218 16.4784 18.1134C16.5246 18.0087 16.5484 17.8964 16.5484 17.7831V16.0573C16.5484 15.8284 16.4515 15.6089 16.2791 15.4471C16.1067 15.2853 15.8729 15.1943 15.629 15.1943Z" fill="black"/>
</svg>
